<?xml version="1.0" standalone="no"?>
<!DOCTYPE svg PUBLIC "-//W3C//DTD SVG 20010904//EN"
 "http://www.w3.org/TR/2001/REC-SVG-20010904/DTD/svg10.dtd">
<svg version="1.0" xmlns="http://www.w3.org/2000/svg"
 width="1024.000000pt" height="1024.000000pt" viewBox="0 0 1024.000000 1024.000000"
 preserveAspectRatio="xMidYMid meet">
<metadata>
Created by potrace 1.16, written by Peter Selinger 2001-2019
</metadata>
<g transform="translate(0.000000,1024.000000) scale(0.100000,-0.100000)"
fill="#00ff00" stroke="none">
<path d="M3894 6937 c-2 -7 -3 -116 -2 -242 l3 -230 175 0 175 0 3 243 2 242
-175 0 c-133 0 -177 -3 -181 -13z M4280 6705 l0 -245 170 0 170 0 0 143 0 142
73 -1 c39 -1 77 -2 82 -3 6 0 10 -56 10 -143 0 -120 2 -143 15 -143 13 0 15
24 15 160 l0 160 -89 3 c-65 2 -92 -1 -98 -10 -4 -7 -8 30 -8 85 l0 97 -170 0
-170 0 0 -245z M5392 6708 l3 -243 168 -3 167 -2 0 245 0 245 -170 0 -170 0 2
-242z M5770 6705 l0 -245 168 2 167 3 3 243 2 242 -170 0 -170 0 0 -245z
M6120 6763 c0 -16 9 -18 75 -15 l75 2 0 -151 c0 -138 1 -150 18 -147 15 3 17
19 20 143 4 197 10 185 -98 185 -79 0 -90 -2 -90 -17z M3890 6190 l0 -240 180
0 180 0 0 240 0 240 -180 0 -180 0 0 -240z M4280 6190 l0 -240 170 0 170 0 0
240 0 240 -170 0 -170 0 0 -240z M4780 6185 c0 -240 0 -245 20 -245 20 0 21 5
20 245 -1 235 -2 245 -21 245 -18 0 -19 -9 -19 -245z M5390 6190 l0 -240 170
0 170 0 0 240 0 240 -170 0 -170 0 0 -240z M5768 6190 l-3 -240 173 0 172 0 0
240 0 240 -170 0 -169 0 -3 -240z M6270 6184 c0 -228 1 -245 18 -242 16 3 17
24 20 246 2 237 2 242 -18 242 -20 0 -20 -6 -20 -246z M2540 5670 l0 -250 165
0 165 0 0 250 0 250 -165 0 -165 0 0 -250z M2900 5670 l0 -251 158 3 157 3 3
239 c2 185 -1 241 -10 248 -7 4 -79 8 -160 8 l-148 0 0 -250z M3242 5673 l3
-248 158 -3 157 -3 0 251 0 250 -160 0 -160 0 2 -247z M3595 5908 c-3 -8 -4
-119 -3 -248 l3 -235 155 0 155 0 0 245 0 245 -153 3 c-118 2 -154 0 -157 -10z
m66 -455 c13 -16 12 -17 -3 -4 -10 7 -18 15 -18 17 0 8 8 3 21 -13z M3932
5673 l3 -248 158 -3 157 -3 0 251 0 250 -160 0 -160 0 2 -247z M4280 5670 l0
-250 170 0 170 0 0 250 0 250 -170 0 -170 0 0 -250z M4782 5673 c3 -213 5
-248 18 -248 13 0 15 35 18 248 2 243 2 247 -18 247 -20 0 -20 -4 -18 -247z
M5394 5907 c-2 -7 -3 -118 -2 -247 l3 -235 170 -3 170 -2 -2 227 c-1 126 -2
238 -2 251 -1 22 -2 22 -166 22 -125 0 -167 -3 -171 -13z M5769 5868 c-1 -29
-2 -142 -3 -250 l-1 -198 168 0 167 0 0 250 0 250 -165 0 -165 0 -1 -52z
M6135 5908 c-3 -8 -4 -119 -3 -248 l3 -235 160 0 160 0 0 245 0 245 -158 3
c-122 2 -159 0 -162 -10z M6480 5670 l0 -250 160 0 160 0 -2 248 -3 247 -157
3 -158 3 0 -251z M6824 5907 c-2 -7 -3 -118 -2 -247 l3 -235 158 -3 157 -3 0
251 0 250 -155 0 c-117 0 -157 -3 -161 -13z M7170 5670 l0 -250 159 0 c136 0
160 2 165 16 3 9 6 86 7 172 0 86 3 152 5 146 3 -7 33 -9 84 -7 l80 4 2 -163
c3 -146 5 -163 21 -166 16 -3 17 10 17 172 0 163 -1 176 -19 186 -29 15 -178
13 -184 -2 -3 -7 -6 15 -6 49 -1 99 9 93 -172 93 l-159 0 0 -250z M2350 5145
l0 -245 88 -1 c48 -1 116 -2 152 -2 l65 -2 3 248 2 247 -155 0 -155 0 0 -245z
m56 -190 c-1 -8 -5 -17 -8 -21 -5 -4 -4 16 1 34 3 9 9 -1 7 -13z M2690 5142
l0 -248 163 1 162 0 3 225 c1 124 0 235 -3 248 -5 22 -8 22 -165 22 l-160 0 0
-248z M4054 5377 c-2 -7 -3 -118 -2 -247 l3 -234 145 -1 c80 -1 153 0 163 2
16 4 17 24 17 249 l0 244 -160 0 c-121 0 -162 -3 -166 -13z M4410 5145 c0
-189 3 -245 13 -246 6 -1 78 -2 159 -3 140 -1 147 0 151 19 4 17 2 446 -2 468
0 4 -73 7 -161 7 l-160 0 0 -245z M4877 5384 c-4 -4 -7 -117 -7 -251 0 -227 1
-244 18 -241 16 3 17 23 17 247 0 232 -4 268 -28 245z M5297 5383 c-10 -9 -9
-483 1 -484 4 -1 76 -2 160 -3 l152 -2 1 121 c2 170 2 273 0 328 l-1 47 -153
0 c-85 0 -157 -3 -160 -7z M5642 5143 l3 -248 154 0 c93 0 155 4 157 10 5 15
11 424 6 456 l-4 29 -159 0 -159 0 2 -247z M7004 5377 c-2 -7 -3 -118 -2 -247
l3 -235 160 0 160 0 3 248 2 247 -160 0 c-121 0 -162 -3 -166 -13z M7360 5142
l0 -249 113 3 c61 1 136 3 165 3 l52 1 -2 243 -3 242 -162 3 -163 2 0 -248z
M7827 5383 c-4 -3 -7 -114 -7 -245 0 -206 2 -239 15 -245 9 -3 19 -2 23 2 9 8
15 440 7 472 -5 22 -24 30 -38 16z M3146 5194 c-13 -33 -7 -269 7 -289 29 -38
37 -7 37 136 0 91 4 139 11 139 5 0 7 -4 4 -10 -4 -6 37 -10 115 -10 67 0 119
4 116 8 -3 5 1 9 9 9 8 0 12 -4 9 -9 -8 -13 51 -9 65 5 11 10 13 10 7 0 -5 -9
3 -13 29 -13 20 0 34 4 31 9 -7 10 9 8 38 -4 19 -8 39 10 33 30 -2 6 -98 11
-254 13 -222 2 -251 1 -257 -14z M3670 5186 l0 -23 181 -2 c125 -2 179 1 174
8 -3 6 -2 11 4 11 6 0 8 7 5 15 -5 13 -35 15 -185 15 l-179 0 0 -24z M6097
5193 c-8 -29 -8 -230 -1 -268 6 -33 33 -51 34 -22 1 6 1 72 1 145 1 72 5 132
10 132 5 0 9 -4 9 -10 0 -15 113 -12 129 3 11 10 13 10 7 0 -5 -9 1 -13 19
-13 18 0 24 4 19 13 -6 9 -4 9 8 -1 12 -9 18 -10 23 -2 4 6 12 7 18 2 7 -4 29
-10 51 -11 30 -2 36 0 30 11 -6 10 -4 10 9 -1 14 -11 17 -11 17 0 0 12 2 12 9
0 7 -11 9 -11 14 0 4 10 6 10 6 2 1 -7 10 -13 22 -13 13 0 18 4 13 13 -6 9 -4
9 7 1 19 -15 101 -15 92 0 -3 6 0 6 8 -1 9 -10 59 -13 178 -12 102 0 158 4
146 9 -17 7 -17 9 -2 9 9 1 17 8 17 16 0 13 -56 15 -444 15 -415 0 -445 -1
-449 -17z M2540 4620 l0 -250 165 0 165 0 0 250 0 250 -165 0 -165 0 0 -250z
M2900 4620 l0 -250 165 0 165 0 0 250 0 250 -165 0 -165 0 0 -250z M3340 4621
c0 -245 0 -251 20 -251 20 0 20 5 18 247 -3 227 -4 248 -20 251 -17 3 -18 -14
-18 -247z M4050 4620 l0 -250 165 0 165 0 0 250 0 250 -165 0 -165 0 0 -250z
M4410 4620 l0 -250 159 0 159 0 7 123 c3 67 5 178 3 247 l-3 125 -162 3 -163
2 0 -250z M4870 4622 c0 -137 3 -251 6 -255 3 -3 12 -3 19 0 11 4 14 56 15
254 1 244 0 249 -20 249 -20 0 -20 -5 -20 -248z M5290 4620 l0 -250 163 0 162
0 -2 167 c-2 93 -3 205 -3 251 l0 82 -160 0 -160 0 0 -250z M5640 4620 l0
-250 160 0 160 0 0 250 0 250 -160 0 -160 0 0 -250z M6098 4653 c-1 -120 -2
-227 -3 -238 -3 -41 25 -64 38 -31 7 17 6 408 -1 454 -2 18 -10 32 -18 32 -11
0 -14 -40 -16 -217z M6824 4857 c-2 -7 -3 -118 -2 -247 l3 -235 158 -3 157 -3
0 251 0 250 -155 0 c-117 0 -157 -3 -161 -13z M7170 4620 l0 -250 163 2 162 3
3 248 2 247 -165 0 -165 0 0 -250z M7826 4793 l5 -78 -92 4 c-69 2 -94 0 -100
-10 -5 -8 -9 -87 -9 -176 l0 -163 25 0 24 0 -2 152 -2 152 64 -3 c44 -2 67 2
73 11 8 10 11 10 15 1 8 -21 30 -15 36 10 2 12 3 49 1 82 -1 33 -3 68 -3 78
-1 10 -9 17 -20 17 -18 0 -19 -6 -15 -77z M2699 4339 c-6 -3 -8 -105 -7 -245
l3 -239 158 -3 157 -3 0 246 c0 226 -1 245 -17 246 -55 5 -286 3 -294 -2z m58
-414 c0 -8 -4 -12 -9 -9 -5 3 -6 10 -3 15 9 13 12 11 12 -6z m0 -38 c0 -8 -6
-14 -14 -14 -9 0 -10 4 -2 14 6 7 12 13 14 13 1 0 2 -6 2 -13z m60 -2 c0 -8
-4 -12 -9 -9 -5 3 -6 10 -3 15 9 13 12 11 12 -6z M3058 4342 c-17 -3 -18 -23
-18 -248 l0 -244 155 0 155 0 0 245 0 245 -87 1 c-49 0 -110 2 -138 3 -27 1
-58 0 -67 -2z M4059 4339 c-5 -3 -8 -106 -7 -245 l3 -239 160 0 160 0 3 243
c2 237 2 242 -18 243 -78 4 -294 3 -301 -2z M4883 4343 c-9 -3 -13 -33 -13
-100 0 -85 2 -94 18 -91 14 3 17 17 20 92 3 89 -2 108 -25 99z M5534 4340
l-42 -5 -1 -114 c-1 -63 1 -172 5 -243 l7 -128 152 0 152 0 7 77 c11 138 7
401 -6 409 -14 9 -211 12 -274 4z m37 -443 c-6 -8 -7 -18 -3 -23 4 -4 -1 -2
-10 5 -19 14 -25 26 -9 16 5 -3 12 -1 16 5 3 5 9 10 12 10 3 0 0 -6 -6 -13z
m124 -6 c3 -5 2 -12 -3 -15 -5 -3 -9 1 -9 9 0 17 3 19 12 6z m-65 -7 c0 -8
-19 -13 -24 -6 -3 5 1 9 9 9 8 0 15 -2 15 -3z M5860 4342 c-6 -2 -10 -97 -10
-248 l0 -244 163 2 162 3 0 240 0 240 -153 5 c-84 3 -157 4 -162 2z M6693
4342 l-133 -3 0 -245 0 -244 163 2 162 3 0 245 0 244 -30 1 c-16 0 -90 -1
-162 -3z M6928 4342 c-17 -3 -18 -22 -18 -235 0 -128 4 -238 8 -245 7 -9 47
-12 168 -10 l159 3 2 243 c2 222 1 242 -15 243 -48 3 -289 4 -304 1z M3382
4098 l3 -243 150 0 150 0 3 243 2 242 -155 0 -155 0 2 -242z M3710 4107 c1
-128 5 -238 9 -245 6 -9 47 -12 157 -10 l149 3 3 220 c1 121 0 230 -3 243 -5
22 -8 22 -160 22 l-156 0 1 -233z M6210 4095 l0 -245 160 0 160 0 0 245 0 245
-160 0 -160 0 0 -245z M7710 4240 c0 -81 3 -98 14 -94 18 7 24 35 24 109 -1
70 -5 85 -24 85 -11 0 -14 -21 -14 -100z M4583 4182 c-23 -3 -23 -5 -23 -168
0 -157 1 -164 20 -164 18 0 20 8 22 151 l3 151 128 -1 c109 -2 127 0 127 13 0
13 -14 16 -72 17 -40 1 -98 2 -128 3 -30 1 -65 1 -77 -2z M7438 4183 c-16 -4
-18 -21 -18 -169 0 -157 1 -164 20 -164 19 0 20 7 20 153 l0 152 120 -3 c103
-3 120 -1 120 12 0 12 -12 16 -47 17 -27 1 -82 2 -123 4 -41 1 -83 0 -92 -2z
M2984 3817 c-2 -7 -3 -60 -2 -118 l3 -104 385 -3 c380 -2 386 -2 387 18 2 20
-4 20 -368 20 l-369 0 0 100 c0 83 -3 100 -15 100 -9 0 -18 -6 -21 -13z M4749
3773 c0 -32 0 -77 1 -100 l2 -43 -491 0 c-485 0 -491 0 -491 -20 0 -20 5 -20
503 -18 l502 3 0 114 c0 83 -3 115 -12 119 -9 2 -13 -13 -14 -55z M5735 3818
c-3 -8 -4 -61 -3 -119 l3 -104 273 -3 c267 -2 272 -2 272 18 0 20 -6 20 -255
20 l-254 0 -3 97 c-2 66 -7 98 -15 101 -7 2 -15 -3 -18 -10z M7537 3823 c-4
-3 -7 -57 -7 -120 0 -89 3 -113 14 -113 19 0 26 32 26 120 0 101 -11 136 -33
113z M6290 3610 c0 -20 7 -20 518 -20 511 0 518 0 519 20 2 20 -4 20 -518 20
-512 0 -519 0 -519 -20z M7340 3610 c0 -20 5 -21 87 -18 74 3 88 6 91 21 3 15
-6 17 -87 17 -85 0 -91 -1 -91 -20z"/>
</g>
</svg>
